<svg xmlns="http://www.w3.org/2000/svg" version="1.1" xmlns:xlink="http://www.w3.org/1999/xlink" xmlns:svgjs="http://svgjs.dev/svgjs" width="100%" height="100%" viewBox="0 0 1000 600"><rect width="1000" height="600" x="0" y="0" fill="transparent"/><g><rect width="333.3333333333333" height="333.3333333333333" rx="13.333333333333334" ry="13.333333333333334" y="77.77780045403293" fill="#20c997" transform="matrix(2.25000013732911,0,0,2.25000013732911,0,-250.00003738403575)" x="55.555564880371094"/><path d="M220.86966671948917 195.66497488674034L220.86966671948917 195.66497488674034Q201.7318971177011 195.66497488674034 201.7318971177011 207.01036150720958L201.7318971177011 207.01036150720958Q201.7318971177011 217.79049754872315 221.87904275333875 222.91812780067906L221.87904275333875 222.91812780067906L244.7313161596933 229.01475904513055Q280.22097750984466 238.38176863925466 280.22097750984466 270.03580106077754L280.22097750984466 270.03580106077754Q280.22097750984466 291.75757330922056 265.03996196074695 305.6465875349909L265.03996196074695 305.6465875349909Q257.36870410349013 312.46996952381414 244.44869087021542 315.82109795619465Q231.52867763694078 319.1318513472213 216.7110374600289 319.4144766366992Q201.85302224176303 319.6971019261771 187.96400801599276 317.31497448629204Q174.03461874886852 314.89247200505304 164.54648403068245 310.208967207991L164.54648403068245 310.208967207991Q164.38498386526652 308.6343405951857 164.30423378255853 307.01933894102626Q164.2234836998506 305.363962245513 164.2234836998506 303.82971067406163L164.2234836998506 303.82971067406163Q164.2234836998506 287.7604442151762 170.64311527513394 275.0019311473176L170.64311527513394 275.0019311473176L194.74701496346196 275.0019311473176Q198.7441440575063 282.2290635496805 199.7131450500019 289.4561959520436L199.7131450500019 289.4561959520436Q205.2849007568516 291.3134478543268 216.34766208784305 291.3134478543268L216.34766208784305 291.3134478543268Q241.9050632649145 291.3134478543268 241.9050632649145 276.6976828841848L241.9050632649145 276.6976828841848Q241.9050632649145 272.17567825253866 238.47318474982592 269.026425026928L238.47318474982592 269.026425026928Q234.7990559866134 266.0386719667332 224.70529564811758 263.0912939478925L224.70529564811758 263.0912939478925L201.7318971177011 256.38903708313126Q183.96687892194842 251.42290699659125 174.1153688315765 241.6925220302813Q164.2234836998506 232.00251210532528 164.2234836998506 212.98586762759916L164.2234836998506 212.98586762759916Q164.2234836998506 193.80772298445706 179.72749957978016 181.73558561961607L179.72749957978016 181.73558561961607Q187.398757437037 175.6389543751646 198.94601926427623 172.65120131496985Q210.53365613286945 169.66344825477506 223.736294655622 169.46157304800516Q236.89855813702056 169.2596978412352 249.53594608081735 171.4399500743503Q262.17333402461406 173.6605773488194 272.105594197694 177.89995669098766L272.105594197694 177.89995669098766Q272.26709436310995 179.31308313837707 272.34784444581794 180.72620958576647Q272.3882194871719 182.1797110745099 272.3882194871719 183.7139626459613L272.3882194871719 183.7139626459613Q272.3882194871719 198.6123529055811 266.00896295324253 211.69386630427167L266.00896295324253 211.69386630427167L242.1876885543924 211.69386630427167Q238.19055946034803 204.74935919138656 237.22155846785242 197.64335191308547L237.22155846785242 197.64335191308547Q228.82354986622389 195.66497488674034 220.86966671948917 195.66497488674034Z " fill="#ffffff" transform="matrix(2.25000013732911,0,0,2.25000013732911,0,-250.00003738403575)"/><path d="MNaN 244.4444580078119 " fill="#ffffff" transform="matrix(2.25000013732911,0,0,2.25000013732911,0,-250.00003738403575)"/></g></svg>