<svg xmlns="http://www.w3.org/2000/svg" version="1.1" xmlns:xlink="http://www.w3.org/1999/xlink" xmlns:svgjs="http://svgjs.dev/svgjs" width="100%" height="100%" viewBox="0 0 1000 600"><rect width="1000" height="600" x="0" y="0" fill="transparent"/><g><circle r="166.66666666666666" cx="222.22225443522134" cy="244.44447157118097" fill="transparent" transform="matrix(2.25000013732911,0,0,2.25000013732911,0,-250.00002975464122)"/><path d="M185.9099241451645 319.4444441988473L174.4223842032406 319.4444441988473L169.94419066655837 271.1967764427669L185.36475275809013 270.1064336686182Q189.29777490769797 281.00986141010526 194.90525203189134 288.3307343222466Q200.5127291560847 295.6126664210255 208.06724694840076 299.2341620637337Q215.62176474071683 302.8945985198044 224.61709262744367 302.8945985198044L224.61709262744367 302.8945985198044Q237.23391615687873 302.8945985198044 244.24326256212044 296.5861867550868Q251.25260896736214 290.2777749903693 251.25260896736214 279.0628207419826L251.25260896736214 279.0628207419826Q251.25260896736214 272.91017223071486 248.29310715181563 268.70456438756986Q245.3725461496316 264.4989565444248 238.05167323749026 260.99428334180396Q230.7697411387114 257.4896101391831 218.4255033028135 254.10175937664962L218.4255033028135 254.10175937664962Q206.12020628027807 250.75284942747862 197.3974640870884 246.66406402442095Q188.71366270726116 242.61421943472573 183.378771276605 237.55191369760672Q178.08282065931127 232.52854877385016 175.6684902308391 226.22013700913266Q173.29310061572943 219.9117252444151 173.29310061572943 211.50050955812503L173.29310061572943 211.50050955812503Q173.29310061572943 198.6111003351528 179.17316343345996 189.187423501439Q185.09216706455297 179.80268748108756 195.99559480604006 174.62355930388122Q206.9379633608896 169.44443112667483 221.54076837180983 169.44443112667483L221.54076837180983 169.44443112667483Q230.22456975163706 169.44443112667483 238.75260787801443 172.09240643532172Q247.3195868177543 174.779322557331 252.3818925548733 178.98493040047606L252.3818925548733 178.98493040047606L254.6015189165332 169.44443112667483L266.6731710588939 169.44443112667483L270.29466670160207 215.12200520083326L254.6015189165332 213.72013591978492Q251.79778035443653 200.28555530973836 242.8413932810721 192.3026885704353Q233.84606539434526 184.2808810177698 222.08593975888417 184.2808810177698L222.08593975888417 184.2808810177698Q210.01428761652346 184.2808810177698 203.31646771818137 189.61577244842596Q196.57970700647687 194.95066387908213 196.57970700647687 204.76374884642053L196.57970700647687 204.76374884642053Q196.57970700647687 210.91639735768825 199.5002680086609 215.12200520083326Q202.4597698242074 219.32761304397832 209.62487948289893 222.71546380651182Q216.751048328228 226.06437375568282 229.09528616412587 229.7248102117535L229.09528616412587 229.7248102117535Q241.43952400002377 233.34630585446172 250.12332537985097 237.4350912575194Q258.8071267596782 241.48493584721456 264.1420181903344 246.54724158433356Q269.47690962099057 251.57060650809012 272.00806248955007 258.03478152625746Q274.5002745447471 264.4989565444248 274.5002745447471 272.91017223071486L274.5002745447471 272.91017223071486Q274.5002745447471 286.61733853429865 268.07504033994223 297.1313581421612Q261.6108653217749 307.6453777500237 250.39591107338816 313.56438138111673Q239.18095682500143 319.4444441988473 224.0329804270069 319.4444441988473L224.0329804270069 319.4444441988473Q213.12955268551977 319.4444441988473 204.01740235870554 316.9132913302878Q194.90525203189134 314.3821384617283 188.98624840079836 309.90394492504606L188.98624840079836 309.90394492504606L185.9099241451645 319.4444441988473Z " fill="#20c997" transform="matrix(2.25000013732911,0,0,2.25000013732911,0,-250.00002975464122)"/><path d="MNaN 244.44443766276106 " fill="#20c997" transform="matrix(2.25000013732911,0,0,2.25000013732911,0,-250.00002975464122)"/></g></svg>